<svg width="31" height="27" xmlns="http://www.w3.org/2000/svg"><path fill="#00B2FF" d="M15.155 8.215a.594.594 0 00-.592.597c0 .329.265.596.591.596a.594.594 0 00.592-.596.594.594 0 00-.591-.597z"/><path fill="#00B2FF" d="M28.533 11.792h-2.304C25.015 8.301 23.253 2.18 20.062.446c-1.596-.866-3.105-.261-3.673.967a1.34 1.34 0 01-1.235.797 1.34 1.34 0 01-1.235-.797C13.372.227 11.9-.433 10.36.32 7.117 1.906 5.304 8.274 4.08 11.792H1.776c-.981 0-1.776.8-1.776 1.789 0 .986.797 1.788 1.776 1.788h26.757c.98 0 1.776-.8 1.776-1.788 0-.987-.797-1.789-1.776-1.789zM6.159 9.408h6.628a.594.594 0 00.591-.596.594.594 0 00-.591-.596H6.572c1.784-4.964 3.451-6.407 4.303-6.823.93-.454 1.694-.074 1.97.523a2.522 2.522 0 002.308 1.486c.979 0 1.876-.549 2.309-1.486.284-.614 1.052-.955 2.037-.42.856.464 2.518 1.955 4.236 6.72h-6.214a.594.594 0 00-.592.596c0 .329.265.596.592.596h6.628c.3.869.61 1.766.825 2.384H5.334c.214-.617.524-1.511.825-2.384zm22.374 4.769H1.776a.595.595 0 01-.592-.596c0-.33.265-.596.592-.596h26.757c.326 0 .592.267.592.596a.594.594 0 01-.592.596zM13.97 17.753H4.5a.594.594 0 00-.593.597v2.384c0 2.958 2.39 5.365 5.328 5.365a5.317 5.317 0 004.98-3.456 2.258 2.258 0 011.88 0 5.317 5.317 0 004.98 3.456c2.937 0 5.327-2.407 5.327-5.365v-2.385a.594.594 0 00-.592-.596h-9.471a.594.594 0 00-.592.596v.596h-1.184v-.596a.594.594 0 00-.592-.596zm-4.735 7.154c-2.285 0-4.144-1.872-4.144-4.173v-1.788h8.288v1.788c0 2.307-1.85 4.173-4.144 4.173zm7.695-5.961h8.288v1.788c0 2.301-1.859 4.173-4.144 4.173-2.3 0-4.144-1.872-4.144-4.173v-1.788zm-1.184 1.192v.596c0 .19.011.38.031.569a3.441 3.441 0 00-1.245 0c.02-.189.03-.378.03-.569v-.596h1.184z"/><path fill="#00B2FF" d="M9.235 22.522c-.98 0-1.776-.802-1.776-1.788a.594.594 0 00-.592-.596.594.594 0 00-.592.596c0 1.643 1.328 2.98 2.96 2.98a.594.594 0 00.592-.595.594.594 0 00-.592-.597zm11.839 1.193c1.632 0 2.96-1.338 2.96-2.981a.594.594 0 00-.592-.596.594.594 0 00-.592.596c0 .986-.796 1.788-1.776 1.788a.594.594 0 00-.592.597c0 .329.265.596.592.596z"/></svg>