<svg width="30" height="36" xmlns="http://www.w3.org/2000/svg"><path fill="#00B2FF" d="M3.23 11.817l-1.506-1.492a2.066 2.066 0 010-2.938c.819-.81 2.15-.81 2.968 0L6.3 8.98a14.774 14.774 0 015.593-2.341V4.572h-1.399c-.386 0-.7-.31-.7-.693V2.078A2.09 2.09 0 0111.895 0h5.597a2.09 2.09 0 012.099 2.078v1.8a.696.696 0 01-.7.694h-1.4v2.066a14.772 14.772 0 015.594 2.341l1.608-1.592c.818-.81 2.15-.81 2.968 0 .818.81.818 2.128 0 2.939l-1.506 1.49a14.44 14.44 0 013.23 9.102c0 8.02-6.59 14.546-14.692 14.546S0 28.939 0 20.918a14.44 14.44 0 013.23-9.101zm.473-3.45a.706.706 0 00-.99 0 .689.689 0 000 .979l1.446 1.431c.326-.331.668-.647 1.023-.946l-1.48-1.464zM18.19 2.078a.697.697 0 00-.7-.693h-5.596c-.386 0-.7.31-.7.693v1.108h6.996V2.078zm-4.897 2.494v1.866c.927-.086 1.87-.086 2.798 0V4.572h-2.798zM26.67 8.367a.706.706 0 00-.99 0L24.202 9.83c.355.3.697.615 1.023.946l1.445-1.431a.689.689 0 000-.98zM14.692 34.079c7.33 0 13.293-5.904 13.293-13.16a13.07 13.07 0 00-3.305-8.686 13.35 13.35 0 00-9.988-4.475 13.353 13.353 0 00-8.041 2.68c-.705.53-1.36 1.134-1.947 1.795a13.069 13.069 0 00-3.305 8.685c0 7.257 5.963 13.16 13.293 13.16z"/><path fill="#00B2FF" d="M14.692 22.996a2.09 2.09 0 01-2.1-2.078c0-.903.586-1.673 1.4-1.959v-4.967c0-.383.313-.693.7-.693.386 0 .7.31.7.693v4.967a2.083 2.083 0 011.399 1.96 2.09 2.09 0 01-2.1 2.077zm0-2.77c-.386 0-.7.31-.7.692 0 .382.314.693.7.693.386 0 .7-.31.7-.693a.697.697 0 00-.7-.692z"/><path fill="#00B2FF" d="M7.24 13.61a.553.553 0 01.074-.074 10.555 10.555 0 014.41-2.585.7.7 0 01.869.469.692.692 0 01-.473.86 9.146 9.146 0 00-3.341 1.804l.472.467c.273.27.273.71 0 .98a.701.701 0 01-.99 0l-.473-.469a8.874 8.874 0 00-2.164 5.164h.673c.386 0 .7.31.7.692a.696.696 0 01-.7.693h-.673a8.873 8.873 0 002.164 5.163l.473-.469a.705.705 0 01.99 0 .689.689 0 010 .98l-.474.468a9.059 9.059 0 005.215 2.143v-.666c0-.383.314-.693.7-.693.386 0 .7.31.7.693v.666a9.058 9.058 0 005.215-2.143l-.473-.468a.688.688 0 010-.98.705.705 0 01.99 0l.472.469a8.874 8.874 0 002.165-5.163h-.673c-.387 0-.7-.31-.7-.693 0-.382.313-.692.7-.692h.672a8.874 8.874 0 00-2.164-5.163l-.473.468a.701.701 0 01-.99 0 .688.688 0 010-.98l.473-.467a9.141 9.141 0 00-3.342-1.804.692.692 0 01-.473-.86.7.7 0 01.87-.469 10.551 10.551 0 014.408 2.584.723.723 0 01.042.038l.034.037a10.266 10.266 0 013.041 7.308c0 2.755-1.08 5.347-3.041 7.308l-.034.037-.037.034a10.477 10.477 0 01-7.382 3.011 10.476 10.476 0 01-7.381-3.01l-.038-.035-.033-.037a10.266 10.266 0 01-3.042-7.308c0-2.754 1.08-5.347 3.041-7.307z"/><path fill="#00B2FF" d="M14.692 11.914c-.386 0-.7-.31-.7-.693 0-.382.314-.693.7-.693.386 0 .7.31.7.693a.696.696 0 01-.7.693z"/></svg>