<svg fill="none" height="18" viewBox="0 0 18 18" width="18" xmlns="http://www.w3.org/2000/svg"><g fill="#00b2ff"><path d="m14.2333 11.1503c-.3691-.3837-.8142-.5888-1.286-.5888-.4679 0-.9169.2013-1.3011.585l-1.2023 1.1967c-.0989-.0531-.1978-.1025-.2929-.1519-.137-.0684-.26633-.133-.37667-.2014-1.12614-.7142-2.14957-1.645-3.13114-2.84924-.47557-.60025-.79515-1.10552-1.02723-1.61839.31197-.28492.60112-.58125.88265-.86617.10653-.10638.21306-.21655.31959-.32292.79895-.7978.79895-1.83113 0-2.62893l-1.03865-1.03713c-.11794-.11777-.23968-.23934-.35382-.36091-.22827-.23554-.46796-.47867-.71526-.70662-.36904-.3647-.81037-.55845-1.27452-.55845-.46416 0-.91309.19375-1.29355.55845-.0038.0038-.0038.0038-.00761.0076l-1.293547 1.30307c-.486983.48627-.764715 1.07892-.8255878 1.76654-.0913093 1.10932.2358818 2.14265.4869828 2.81888.616342 1.66018 1.537042 3.19882 2.910482 4.84752 1.6664 1.9869 3.6714 3.5559 5.96174 4.6614.87504.4141 2.04304.9042 3.34804.9878.0799.0038.1636.0076.2397.0076.8788 0 1.6169-.3153 2.1952-.9422.0038-.0076.0114-.0114.0152-.019.1978-.2393.4261-.4559.6658-.6876.1636-.1558.331-.3191.4946-.4901.3766-.3913.5745-.8471.5745-1.3144 0-.4711-.2017-.9232-.5859-1.3031zm1.362 4.0004c-.0038 0-.0038.0038 0 0-.1484.1596-.3006.3039-.4642.4635-.2473.2355-.4984.4825-.7342.7598-.3843.4103-.837.604-1.4305.604-.0571 0-.118 0-.1751-.0038-1.1299-.0721-2.18-.5128-2.96751-.8889-2.15337-1.041-4.04424-2.5188-5.61552-4.3917-1.29735-1.5614-2.16479-3.00503-2.73928-4.55503-.35382-.94595-.483174-1.68297-.42611-2.37819.03805-.44448.20926-.81299.52503-1.12831l1.29736-1.29546c.18642-.17476.38426-.26974.57829-.26974.23968 0 .43372.14437.55546.26594.00381.0038.00761.00759.01142.01139.23207.21655.45274.44069.68482.68003.11794.12157.23968.24314.36143.3685l1.03864 1.03714c.40328.40269.40328.775 0 1.1777-.11033.11017-.21686.22034-.32719.32671-.31958.32672-.62395.63064-.95494.92696-.00761.0076-.01522.0114-.01903.019-.32719.32671-.26631.64583-.19783.86238.0038.01139.00761.02279.01141.03419.27012.65343.65058 1.26887 1.22887 2.00209l.00381.00379c1.05005 1.29171 2.15718 2.29841 3.37844 3.06961.15599.0988.31578.1786.46796.2545.13696.0684.26632.133.37667.2014.0152.0076.0304.019.0456.0266.1294.0646.2511.095.3767.095.3158 0 .5136-.1976.5783-.2622l1.3011-1.2992c.1294-.1292.3348-.285.5745-.285.2359 0 .4299.1482.5479.2774l.0076.0076 2.0963 2.0932c.3919.3875.3919.7864.0038 1.1891z"/><path d="m9.72843 4.28169c.99677.16716 1.90227.63823 2.62517 1.36005.7228.72181 1.1908 1.62598 1.362 2.62133.0419.25073.2587.42549.506.42549.0304 0 .0571-.0038.0875-.0076.2816-.04559.468-.31152.4223-.59265-.2054-1.20429-.7761-2.30221-1.6473-3.17218-.8713-.86998-1.9708-1.43983-3.17685-1.64498-.28154-.04559-.54405.14056-.59351.41789s.13316.54706.41469.59265z"/><path d="m17.9921 7.94018c-.3386-1.98309-1.2745-3.78763-2.7126-5.22366s-3.2453-2.370588-5.2313-2.70870105c-.27769-.04938735-.54021.14056405-.58967.41789305-.04565.281128.14077.54326.42231.592648 1.77296.30012 3.38986 1.13971 4.67576 2.41998 1.286 1.28407 2.123 2.89865 2.4235 4.669.0419.25074.2587.42549.506.42549.0305 0 .0571-.0038.0875-.0076.2778-.04179.468-.30772.4185-.58505z"/></g></svg>