<svg fill="none" height="14" viewBox="0 0 19 14" width="19" xmlns="http://www.w3.org/2000/svg"><g fill="#00b2ff"><path d="m16.6805 0h-14.3571c-1.2816 0-2.3234 1.0087-2.3234 2.24959v9.50081c0 1.2409 1.0418 2.2496 2.3234 2.2496h14.3532c1.2816 0 2.3234-1.0087 2.3234-2.2496v-9.497c.0039-1.24089-1.0379-2.2534-2.3195-2.2534zm1.262 11.7504c0 .6737-.5661 1.2219-1.262 1.2219h-14.3571c-.69584 0-1.26195-.5482-1.26195-1.2219v-9.497c0-.67374.56611-1.22186 1.26195-1.22186h14.3532c.6958 0 1.2619.54812 1.2619 1.22186v9.497z"/><path d="m11.9827 6.88195 4.6468-4.0348c.2162-.19032.2359-.51387.0393-.72703-.1965-.20935-.5307-.22838-.7509-.03806l-6.40798 5.56879-1.25015-1.08103c-.00393-.0038-.00787-.00761-.00787-.01142-.02751-.02664-.05503-.04948-.08648-.07232l-5.08711-4.40783c-.22015-.19032-.55431-.17129-.75088.04187-.19656.21316-.17691.53671.04325.72703l4.70183 4.06906-4.68218 4.24419c-.21229.1941-.22408.5176-.02359.727.10615.1066.24768.1637.3892.1637.12974 0 .25947-.0457.36168-.1371l4.75295-4.30502 1.28947 1.11528c.10221.08754.22801.12941.35381.12941s.25554-.04567.35382-.13322l1.32483-1.14954 4.7254 4.34689c.1023.0952.2359.1409.3657.1409.1415 0 .2791-.0533.3852-.1599.2005-.2055.1927-.5329-.0196-.727z"/></g></svg>